<svg xmlns="http://www.w3.org/2000/svg" viewBox="0 0 1280 720" role="img" aria-label="Return of Magoon">
  <defs>
    <linearGradient id="g" x1="0" x2="1" y1="0" y2="1">
      <stop offset="0" stop-color="#fb923c"/>
      <stop offset="0.55" stop-color="#7f1d1d"/>
      <stop offset="1" stop-color="#020617"/>
    </linearGradient>
    <filter id="blur"><feGaussianBlur stdDeviation="28"/></filter>
  </defs>
  <rect width="1280" height="720" fill="url(#g)"/>
  <g opacity=".32" stroke="#fff" stroke-width="1">
    <path d="M 0 80 C 260 -40, 460 240, 1280 40" fill="none"/><path d="M 0 160 C 260 40, 460 320, 1280 120" fill="none"/><path d="M 0 240 C 260 120, 460 400, 1280 200" fill="none"/><path d="M 0 320 C 260 200, 460 480, 1280 280" fill="none"/><path d="M 0 400 C 260 280, 460 560, 1280 360" fill="none"/><path d="M 0 480 C 260 360, 460 640, 1280 440" fill="none"/><path d="M 0 560 C 260 440, 460 720, 1280 520" fill="none"/><path d="M 0 640 C 260 520, 460 800, 1280 600" fill="none"/><path d="M 0 720 C 260 600, 460 880, 1280 680" fill="none"/>
  </g>
  <circle cx="820" cy="240" r="190" fill="#a78bfa" opacity=".42" filter="url(#blur)"/>
  <circle cx="310" cy="260" r="140" fill="#ffffff" opacity=".16" filter="url(#blur)"/>
  <text x="72" y="560" fill="#fff" font-family="Inter, ui-sans-serif, system-ui" font-size="72" font-weight="900" letter-spacing="-3">Return of Magoon</text>
  <text x="76" y="618" fill="rgba(255,255,255,.72)" font-family="Inter, ui-sans-serif, system-ui" font-size="28" font-weight="600">Unity · 2D Adventure · Combat Systems</text>
</svg>